<?xml version="1.0" standalone="no"?>
<!DOCTYPE svg PUBLIC "-//W3C//DTD SVG 20010904//EN"
 "http://www.w3.org/TR/2001/REC-SVG-20010904/DTD/svg10.dtd">
<svg version="1.0" xmlns="http://www.w3.org/2000/svg"
 width="512.000000pt" height="512.000000pt" viewBox="0 0 512.000000 512.000000"
 preserveAspectRatio="xMidYMid meet">

<g transform="translate(0.000000,512.000000) scale(0.100000,-0.100000)"
fill="#000000" stroke="none">
<path d="M321 4674 c-163 -44 -284 -178 -311 -344 -12 -81 -12 -1106 1 -1040
27 137 129 252 278 312 l56 23 950 5 950 5 59 28 c77 36 138 87 182 151 37 54
74 159 74 207 l0 29 1099 0 c1076 0 1100 0 1165 -20 137 -43 246 -161 282
-305 11 -45 12 -33 13 135 0 102 -4 213 -9 248 -11 80 -57 178 -109 235 -56
61 -160 114 -247 127 -42 6 -494 10 -1164 10 l-1095 1 -27 39 c-37 53 -116
114 -185 142 l-58 23 -925 2 c-785 2 -933 0 -979 -13z"/>
<path d="M1 725 c-2 -204 51 -330 180 -427 28 -21 80 -47 116 -58 64 -20 88
-20 2263 -20 2175 0 2199 0 2263 20 36 11 88 37 116 58 129 97 182 223 180
427 l-1 80 -12 -50 c-36 -144 -145 -262 -282 -305 -66 -20 -84 -20 -2264 -20
-2180 0 -2198 0 -2264 20 -137 43 -246 161 -282 305 l-12 50 -1 -80z"/>
</g>
</svg>
